<svg xmlns="http://www.w3.org/2000/svg" width="1280" height="400" viewBox="0 0 1280 400" font-family="'Noto Sans CJK SC','Segoe UI',Helvetica,Arial,sans-serif">
<defs>
 <linearGradient id="bg" x1="0" y1="0" x2="1" y2="1"><stop offset="0" stop-color="#0B0A1F"/><stop offset="0.55" stop-color="#15123A"/><stop offset="1" stop-color="#0B2A33"/></linearGradient>
 <radialGradient id="g1" cx="0.75" cy="0.3" r="0.45"><stop offset="0" stop-color="#A78BFA" stop-opacity="0.25"/><stop offset="1" stop-color="#A78BFA" stop-opacity="0"/></radialGradient>
 <radialGradient id="g2" cx="0.8" cy="0.8" r="0.4"><stop offset="0" stop-color="#2DD4BF" stop-opacity="0.22"/><stop offset="1" stop-color="#2DD4BF" stop-opacity="0"/></radialGradient>
 <linearGradient id="tg" x1="0" x2="1"><stop offset="0" stop-color="#FFFFFF"/><stop offset="0.55" stop-color="#C4B5FD"/><stop offset="1" stop-color="#5EEAD4"/></linearGradient>
 <linearGradient id="tt" x1="0" x2="1"><stop offset="0" stop-color="#A78BFA" stop-opacity="0"/><stop offset="0.15" stop-color="#A78BFA"/><stop offset="1" stop-color="#F0ABFC"/></linearGradient>
 <linearGradient id="gt" x1="0" x2="1"><stop offset="0" stop-color="#2DD4BF" stop-opacity="0"/><stop offset="0.15" stop-color="#2DD4BF"/><stop offset="1" stop-color="#5EEAD4"/></linearGradient>
 <pattern id="grid" width="24" height="24" patternUnits="userSpaceOnUse"><path d="M24 0H0V24" fill="none" stroke="#2A2560" stroke-width="1" opacity="0.6"/></pattern>
 <linearGradient id="fade" x1="0" x2="1"><stop offset="0.35" stop-color="#fff" stop-opacity="0"/><stop offset="0.6" stop-color="#fff" stop-opacity="1"/></linearGradient>
 <mask id="m"><rect width="1280" height="400" fill="url(#fade)"/></mask>
</defs>
<rect width="1280" height="400" fill="url(#bg)"/>
<rect width="1280" height="400" fill="url(#grid)" mask="url(#m)"/>
<rect width="1280" height="400" fill="url(#g1)"/><rect width="1280" height="400" fill="url(#g2)"/>
<text x="704" y="62" font-size="13" letter-spacing="2" fill="#C4B5FD" font-weight="700">HAND TREMOR · ACCEL + GYRO</text>
<path d="M704.0,120.0 L705.3,124.6 L706.5,127.3 L707.8,127.8 L709.0,127.2 L710.3,126.6 L711.5,125.6 L712.8,123.0 L714.0,118.7 L715.3,114.1 L716.5,111.4 L717.8,111.4 L719.0,113.0 L720.3,114.8 L721.5,116.4 L722.8,118.8 L724.0,122.6 L725.3,126.8 L726.5,129.4 L727.8,129.1 L729.0,126.6 L730.3,123.7 L731.6,121.5 L732.8,119.2 L734.1,116.2 L735.3,112.6 L736.6,110.4 L737.8,110.9 L739.1,114.0 L740.3,117.8 L741.6,120.7 L742.8,122.8 L744.1,125.0 L745.3,127.6 L746.6,129.3 L747.8,128.6 L749.1,125.2 L750.3,120.7 L751.6,117.2 L752.8,115.2 L754.1,113.8 L755.3,112.4 L756.6,111.4 L757.9,112.4 L759.1,115.9 L760.4,120.8 L761.6,124.7 L762.9,126.6 L764.1,127.1 L765.4,127.3 L766.6,127.4 L767.9,126.2 L769.1,122.8 L770.4,117.9 L771.6,113.7 L772.9,111.9 L774.1,112.1 L775.4,113.2 L776.6,114.1 L777.9,115.7 L779.1,118.8 L780.4,123.3 L781.6,127.4 L782.9,129.2 L784.2,128.3 L785.4,126.2 L786.7,124.1 L787.9,122.2 L789.2,119.5 L790.4,115.6 L791.7,111.8 L792.9,110.2 L794.2,111.5 L795.4,114.6 L796.7,117.7 L797.9,120.0 L799.2,122.3 L800.4,125.4 L801.7,128.5 L802.9,129.8 L804.2,128.2 L805.4,124.4 L806.7,120.5 L807.9,117.7 L809.2,115.8 L810.5,113.8 L811.7,111.6 L813.0,110.7 L814.2,112.5 L815.5,116.6 L816.7,121.2 L818.0,124.4 L819.2,126.0 L820.5,127.0 L821.7,128.0 L823.0,128.3 L824.2,126.4 L825.5,122.1 L826.7,117.2 L828.0,113.7 L829.2,112.4 L830.5,112.4 L831.7,112.6 L833.0,113.1 L834.2,115.1 L835.5,119.2 L836.8,124.3 L838.0,128.0 L839.3,129.0 L840.5,128.0 L841.8,126.5 L843.0,125.1 L844.3,123.0 L845.5,119.3 L846.8,114.5 L848.0,110.8 L849.3,109.9 L850.5,111.8 L851.8,114.5 L853.0,116.9 L854.3,119.2 L855.5,122.4 L856.8,126.6 L858.0,130.1 L859.3,130.7 L860.5,128.3 L861.8,124.3 L863.1,120.9 L864.3,118.3 L865.6,115.7 L866.8,112.4 L868.1,109.5 L869.3,109.1 L870.6,112.0 L871.8,116.9 L873.1,121.4 L874.3,124.3 L875.6,126.3 L876.8,128.5 L878.1,130.6 L879.3,130.6 L880.6,127.3 L881.8,121.6 L883.1,116.1 L884.3,112.8 L885.6,111.5 L886.8,110.6 L888.1,109.8 L889.4,110.3 L890.6,113.8 L891.9,120.0 L893.1,126.3 L894.4,130.1 L895.6,130.9 L896.9,130.2 L898.1,129.5 L899.4,128.1 L900.6,124.4 L901.9,118.1 L903.1,111.2 L904.4,107.0 L905.6,106.8 L906.9,109.1 L908.1,111.8 L909.4,114.2 L910.6,118.0 L911.9,124.2 L913.1,131.2 L914.4,135.7 L915.7,135.4 L916.9,131.4 L918.2,126.5 L919.4,122.6 L920.7,118.6 L921.9,113.0 L923.2,106.5 L924.4,102.1 L925.7,102.9 L926.9,108.5 L928.2,115.7 L929.4,121.5 L930.7,125.7 L931.9,130.2 L933.2,135.6 L934.4,139.4 L935.7,138.1 L936.9,131.0 L938.2,121.5 L939.4,113.7 L940.7,109.2 L942.0,106.1 L943.2,102.6 L944.5,100.1 L945.7,102.1 L947.0,110.3 L948.2,121.8 L949.5,131.5 L950.7,136.5 L952.0,137.9 L953.2,138.6 L954.5,139.0 L955.7,136.1 L957.0,127.3 L958.2,114.4 L959.5,103.0 L960.7,97.7 L962.0,98.1 L963.2,100.8 L964.5,103.3 L965.7,107.5 L967.0,116.5 L968.3,129.8 L969.5,142.1 L970.8,147.7 L972.0,145.4 L973.3,139.0 L974.5,132.9 L975.8,127.1 L977.0,118.4 L978.3,105.9 L979.5,93.6 L980.8,88.1 L982.0,92.1 L983.3,102.1 L984.5,112.2 L985.8,120.0 L987.0,127.9 L988.3,138.5 L989.5,149.4 L990.8,154.2 L992.0,148.8 L993.3,135.7 L994.6,121.8 L995.8,111.9 L997.1,104.9 L998.3,97.4 L999.6,89.3 L1000.8,85.9 L1002.1,92.3 L1003.3,107.6 L1004.6,124.6 L1005.8,136.5 L1007.1,142.4 L1008.3,146.2 L1009.6,150.3 L1010.8,151.5 L1012.1,144.3 L1013.3,128.1 L1014.6,109.2 L1015.8,95.8 L1017.1,91.0 L1018.3,91.1 L1019.6,91.9 L1020.9,93.7 L1022.1,101.3 L1023.4,117.0 L1024.6,136.2 L1025.9,150.3 L1027.1,154.2 L1028.4,150.3 L1029.6,144.6 L1030.9,139.3 L1032.1,131.4 L1033.4,117.2 L1034.6,99.4 L1035.9,85.8 L1037.1,82.8 L1038.4,89.7 L1039.6,100.0 L1040.9,108.7 L1042.1,117.0 L1043.4,128.7 L1044.6,143.6 L1045.9,155.5 L1047.2,157.5 L1048.4,148.6 L1049.7,134.9 L1050.9,123.0 L1052.2,114.4 L1053.4,105.7 L1054.7,94.8 L1055.9,85.7 L1057.2,84.8 L1058.4,94.6 L1059.7,110.4 L1060.9,124.5 L1062.2,133.3 L1063.4,139.1 L1064.7,145.4 L1065.9,151.0 L1067.2,150.6 L1068.4,140.8 L1069.7,124.6 L1070.9,109.4 L1072.2,100.6 L1073.5,97.3 L1074.7,95.5 L1076.0,93.8 L1077.2,95.6 L1078.5,104.7 L1079.7,120.0 L1081.0,135.0 L1082.2,143.5 L1083.5,144.7 L1084.7,142.7 L1086.0,140.6 L1087.2,137.3 L1088.5,129.3 L1089.7,116.1 L1091.0,102.5 L1092.2,94.7 L1093.5,94.9 L1094.7,99.8 L1096.0,105.1 L1097.2,109.8 L1098.5,116.6 L1099.8,127.1 L1101.0,138.4 L1102.3,145.1 L1103.5,144.0 L1104.8,137.3 L1106.0,129.7 L1107.3,123.7 L1108.5,118.0 L1109.8,110.5 L1111.0,102.0 L1112.3,96.8 L1113.5,98.4 L1114.8,105.9 L1116.0,114.9 L1117.3,121.7 L1118.5,126.4 L1119.8,131.2 L1121.0,136.7 L1122.3,140.2 L1123.5,138.3 L1124.8,130.8 L1126.1,121.4 L1127.3,114.2 L1128.6,110.2 L1129.8,107.8 L1131.1,105.1 L1132.3,103.4 L1133.6,105.5 L1134.8,112.3 L1136.1,121.4 L1137.3,128.6 L1138.6,132.0 L1139.8,132.7 L1141.1,132.8 L1142.3,132.8 L1143.6,130.5 L1144.8,124.6 L1146.1,116.5 L1147.3,109.7 L1148.6,106.8 L1149.8,107.4 L1151.1,109.2 L1152.4,110.8 L1153.6,113.3 L1154.9,118.1 L1156.1,125.0 L1157.4,131.0 L1158.6,133.5 L1159.9,132.1 L1161.1,128.9 L1162.4,125.9 L1163.6,123.2 L1164.9,119.3 L1166.1,113.9 L1167.4,108.9 L1168.6,106.9 L1169.9,108.7 L1171.1,112.9 L1172.4,117.0 L1173.6,120.0 L1174.9,123.0 L1176.1,126.8 L1177.4,130.6 L1178.7,132.2 L1179.9,130.1 L1181.2,125.4 L1182.4,120.6 L1183.7,117.3 L1184.9,115.0 L1186.2,112.6 L1187.4,110.1 L1188.7,109.2 L1189.9,111.3 L1191.2,116.2 L1192.4,121.4 L1193.7,125.0 L1194.9,126.7 L1196.2,127.8 L1197.4,128.9 L1198.7,129.1 L1199.9,127.0 L1201.2,122.3 L1202.4,116.9 L1203.7,113.2 L1205.0,111.9 L1206.2,112.0 L1207.5,112.3 L1208.7,112.8 L1210.0,114.9 L1211.2,119.2 L1212.5,124.4 L1213.7,128.1 L1215.0,129.1 L1216.2,128.1 L1217.5,126.5 L1218.7,125.1 L1220.0,123.0 L1221.2,119.3 L1222.5,114.6 L1223.7,111.0 L1225.0,110.3 L1226.2,112.1 L1227.5,114.8 L1228.7,117.1 L1230.0,119.2" fill="none" stroke="url(#tt)" stroke-width="2.5" stroke-linejoin="round"/>
<text x="704" y="198" font-size="13" letter-spacing="2" fill="#5EEAD4" font-weight="700">GAIT · LEFT + RIGHT LEG</text>
<path d="M704.0,264.0 L705.1,264.0 L706.1,264.0 L707.2,264.0 L708.2,264.0 L709.3,264.0 L710.3,264.0 L711.4,264.0 L712.4,264.0 L713.5,264.0 L714.5,263.9 L715.6,263.8 L716.6,263.5 L717.7,262.7 L718.7,260.9 L719.8,257.5 L720.8,252.0 L721.9,244.3 L722.9,235.0 L724.0,226.1 L725.0,219.8 L726.1,218.1 L727.1,221.6 L728.2,229.2 L729.2,238.9 L730.3,248.4 L731.4,256.7 L732.4,263.3 L733.5,268.7 L734.5,273.4 L735.6,277.7 L736.6,281.6 L737.7,284.5 L738.7,285.9 L739.8,285.6 L740.8,283.7 L741.9,280.6 L742.9,276.8 L744.0,273.2 L745.0,270.1 L746.1,267.7 L747.1,266.1 L748.2,265.1 L749.2,264.5 L750.3,264.2 L751.3,264.1 L752.4,264.0 L753.4,264.0 L754.5,263.9 L755.5,263.8 L756.6,263.7 L757.7,263.5 L758.7,263.2 L759.8,262.7 L760.8,262.0 L761.9,261.2 L762.9,260.1 L764.0,258.9 L765.0,257.7 L766.1,256.4 L767.1,255.3 L768.2,254.5 L769.2,254.1 L770.3,254.1 L771.3,254.5 L772.4,255.3 L773.4,256.4 L774.5,257.7 L775.5,258.9 L776.6,260.1 L777.6,261.2 L778.7,262.0 L779.7,262.7 L780.8,263.2 L781.8,263.5 L782.9,263.7 L784.0,263.8 L785.0,263.9 L786.1,264.0 L787.1,264.0 L788.2,264.0 L789.2,264.0 L790.3,264.0 L791.3,264.0 L792.4,264.0 L793.4,264.0 L794.5,264.0 L795.5,264.0 L796.6,264.0 L797.6,264.0 L798.7,264.0 L799.7,264.0 L800.8,264.0 L801.8,264.0 L802.9,263.9 L803.9,263.6 L805.0,263.0 L806.0,261.6 L807.1,258.9 L808.1,254.1 L809.2,247.1 L810.3,238.2 L811.3,228.9 L812.4,221.5 L813.4,218.1 L814.5,219.9 L815.5,226.3 L816.6,235.6 L817.6,245.4 L818.7,254.1 L819.7,261.2 L820.8,267.0 L821.8,271.9 L822.9,276.3 L823.9,280.4 L825.0,283.6 L826.0,285.6 L827.1,285.9 L828.1,284.5 L829.2,281.7 L830.2,278.1 L831.3,274.4 L832.3,271.1 L833.4,268.4 L834.4,266.6 L835.5,265.4 L836.6,264.7 L837.6,264.3 L838.7,264.1 L839.7,264.0 L840.8,264.0 L841.8,263.9 L842.9,263.9 L843.9,263.8 L845.0,263.6 L846.0,263.3 L847.1,262.9 L848.1,262.3 L849.2,261.5 L850.2,260.5 L851.3,259.3 L852.3,258.1 L853.4,256.8 L854.4,255.7 L855.5,254.7 L856.5,254.2 L857.6,254.0 L858.6,254.3 L859.7,255.0 L860.7,256.0 L861.8,257.2 L862.9,258.5 L863.9,259.7 L865.0,260.9 L866.0,261.8 L867.1,262.5 L868.1,263.0 L869.2,263.4 L870.2,263.6 L871.3,263.8 L872.3,263.9 L873.4,263.9 L874.4,264.0 L875.5,264.0 L876.5,264.0 L877.6,264.0 L878.6,264.0 L879.7,264.0 L880.7,264.0 L881.8,264.0 L882.8,264.0 L883.9,264.0 L884.9,264.0 L886.0,264.0 L887.0,264.0 L888.1,264.0 L889.2,264.0 L890.2,263.9 L891.3,263.7 L892.3,263.3 L893.4,262.2 L894.4,260.0 L895.5,255.9 L896.5,249.7 L897.6,241.3 L898.6,231.9 L899.7,223.6 L900.7,218.7 L901.8,218.7 L902.8,223.8 L903.9,232.3 L904.9,242.1 L906.0,251.4 L907.0,259.0 L908.1,265.2 L909.1,270.3 L910.2,274.9 L911.2,279.1 L912.3,282.7 L913.3,285.1 L914.4,286.0 L915.5,285.1 L916.5,282.7 L917.6,279.3 L918.6,275.6 L919.7,272.1 L920.7,269.2 L921.8,267.1 L922.8,265.7 L923.9,264.9 L924.9,264.4 L926.0,264.2 L927.0,264.1 L928.1,264.0 L929.1,264.0 L930.2,263.9 L931.2,263.8 L932.3,263.6 L933.3,263.4 L934.4,263.0 L935.4,262.5 L936.5,261.8 L937.5,260.9 L938.6,259.7 L939.6,258.5 L940.7,257.2 L941.8,256.0 L942.8,255.0 L943.9,254.3 L944.9,254.0 L946.0,254.2 L947.0,254.7 L948.1,255.7 L949.1,256.8 L950.2,258.1 L951.2,259.3 L952.3,260.5 L953.3,261.5 L954.4,262.3 L955.4,262.9 L956.5,263.3 L957.5,263.6 L958.6,263.8 L959.6,263.9 L960.7,263.9 L961.7,264.0 L962.8,264.0 L963.8,264.0 L964.9,264.0 L965.9,264.0 L967.0,264.0 L968.1,264.0 L969.1,264.0 L970.2,264.0 L971.2,264.0 L972.3,264.0 L973.3,264.0 L974.4,264.0 L975.4,264.0 L976.5,264.0 L977.5,263.9 L978.6,263.8 L979.6,263.5 L980.7,262.7 L981.7,260.9 L982.8,257.5 L983.8,252.0 L984.9,244.3 L985.9,235.0 L987.0,226.1 L988.0,219.8 L989.1,218.1 L990.1,221.6 L991.2,229.2 L992.2,238.9 L993.3,248.4 L994.4,256.7 L995.4,263.3 L996.5,268.7 L997.5,273.4 L998.6,277.7 L999.6,281.6 L1000.7,284.5 L1001.7,285.9 L1002.8,285.6 L1003.8,283.7 L1004.9,280.6 L1005.9,276.8 L1007.0,273.2 L1008.0,270.1 L1009.1,267.7 L1010.1,266.1 L1011.2,265.1 L1012.2,264.5 L1013.3,264.2 L1014.3,264.1 L1015.4,264.0 L1016.4,264.0 L1017.5,263.9 L1018.5,263.8 L1019.6,263.7 L1020.7,263.5 L1021.7,263.2 L1022.8,262.7 L1023.8,262.0 L1024.9,261.2 L1025.9,260.1 L1027.0,258.9 L1028.0,257.7 L1029.1,256.4 L1030.1,255.3 L1031.2,254.5 L1032.2,254.1 L1033.3,254.1 L1034.3,254.5 L1035.4,255.3 L1036.4,256.4 L1037.5,257.7 L1038.5,258.9 L1039.6,260.1 L1040.6,261.2 L1041.7,262.0 L1042.7,262.7 L1043.8,263.2 L1044.8,263.5 L1045.9,263.7 L1047.0,263.8 L1048.0,263.9 L1049.1,264.0 L1050.1,264.0 L1051.2,264.0 L1052.2,264.0 L1053.3,264.0 L1054.3,264.0 L1055.4,264.0 L1056.4,264.0 L1057.5,264.0 L1058.5,264.0 L1059.6,264.0 L1060.6,264.0 L1061.7,264.0 L1062.7,264.0 L1063.8,264.0 L1064.8,264.0 L1065.9,263.9 L1066.9,263.6 L1068.0,263.0 L1069.0,261.6 L1070.1,258.9 L1071.1,254.1 L1072.2,247.1 L1073.3,238.2 L1074.3,228.9 L1075.4,221.5 L1076.4,218.1 L1077.5,219.9 L1078.5,226.3 L1079.6,235.6 L1080.6,245.4 L1081.7,254.1 L1082.7,261.2 L1083.8,267.0 L1084.8,271.9 L1085.9,276.3 L1086.9,280.4 L1088.0,283.6 L1089.0,285.6 L1090.1,285.9 L1091.1,284.5 L1092.2,281.7 L1093.2,278.1 L1094.3,274.4 L1095.3,271.1 L1096.4,268.4 L1097.4,266.6 L1098.5,265.4 L1099.6,264.7 L1100.6,264.3 L1101.7,264.1 L1102.7,264.0 L1103.8,264.0 L1104.8,263.9 L1105.9,263.9 L1106.9,263.8 L1108.0,263.6 L1109.0,263.3 L1110.1,262.9 L1111.1,262.3 L1112.2,261.5 L1113.2,260.5 L1114.3,259.3 L1115.3,258.1 L1116.4,256.8 L1117.4,255.7 L1118.5,254.7 L1119.5,254.2 L1120.6,254.0 L1121.6,254.3 L1122.7,255.0 L1123.7,256.0 L1124.8,257.2 L1125.9,258.5 L1126.9,259.7 L1128.0,260.9 L1129.0,261.8 L1130.1,262.5 L1131.1,263.0 L1132.2,263.4 L1133.2,263.6 L1134.3,263.8 L1135.3,263.9 L1136.4,263.9 L1137.4,264.0 L1138.5,264.0 L1139.5,264.0 L1140.6,264.0 L1141.6,264.0 L1142.7,264.0 L1143.7,264.0 L1144.8,264.0 L1145.8,264.0 L1146.9,264.0 L1147.9,264.0 L1149.0,264.0 L1150.0,264.0 L1151.1,264.0 L1152.2,264.0 L1153.2,263.9 L1154.3,263.7 L1155.3,263.3 L1156.4,262.2 L1157.4,260.0 L1158.5,255.9 L1159.5,249.7 L1160.6,241.3 L1161.6,231.9 L1162.7,223.6 L1163.7,218.7 L1164.8,218.7 L1165.8,223.8 L1166.9,232.3 L1167.9,242.1 L1169.0,251.4 L1170.0,259.0 L1171.1,265.2 L1172.1,270.3 L1173.2,274.9 L1174.2,279.1 L1175.3,282.7 L1176.3,285.1 L1177.4,286.0 L1178.5,285.1 L1179.5,282.7 L1180.6,279.3 L1181.6,275.6 L1182.7,272.1 L1183.7,269.2 L1184.8,267.1 L1185.8,265.7 L1186.9,264.9 L1187.9,264.4 L1189.0,264.2 L1190.0,264.1 L1191.1,264.0 L1192.1,264.0 L1193.2,263.9 L1194.2,263.8 L1195.3,263.6 L1196.3,263.4 L1197.4,263.0 L1198.4,262.5 L1199.5,261.8 L1200.5,260.9 L1201.6,259.7 L1202.6,258.5 L1203.7,257.2 L1204.8,256.0 L1205.8,255.0 L1206.9,254.3 L1207.9,254.0 L1209.0,254.2 L1210.0,254.7 L1211.1,255.7 L1212.1,256.8 L1213.2,258.1 L1214.2,259.3 L1215.3,260.5 L1216.3,261.5 L1217.4,262.3 L1218.4,262.9 L1219.5,263.3 L1220.5,263.6 L1221.6,263.8 L1222.6,263.9 L1223.7,263.9 L1224.7,264.0 L1225.8,264.0 L1226.8,264.0 L1227.9,264.0 L1228.9,264.0 L1230.0,264.0" fill="none" stroke="url(#gt)" stroke-width="2.5" stroke-linejoin="round"/>
<g transform="translate(1040,342)">
 <rect width="190" height="40" rx="10" fill="#0F0D26" stroke="#F0ABFC" stroke-opacity="0.6"/>
 <circle cx="20" cy="20" r="6" fill="#F0ABFC"/>
 <text x="36" y="26" font-size="15" fill="#FAE8FF" font-weight="600">Ensemble screening</text>
</g>
<text x="64" y="112.0" font-size="16" letter-spacing="4" fill="#C4B5FD" font-weight="700">IOT + ML · PARKINSON'S SYMPTOM SCREENING</text>
<text x="60" y="190.0" font-size="84" font-weight="900" fill="url(#tg)" letter-spacing="-1">TremoGait</text>
<text x="64" y="242.0" font-size="22" fill="#CBD5E1">Wearable hand-tremor &amp; gait analysis with ESP32 + IMUs</text>
<g transform="translate(64,290.0)"><rect width="72" height="32" rx="16" fill="#1E1B3A" stroke="#A78BFA" stroke-opacity="0.5"/><text x="36" y="21" text-anchor="middle" font-size="15" fill="#EDE9FE" font-weight="500">ESP32</text></g><g transform="translate(146,290.0)"><rect width="88" height="32" rx="16" fill="#1E1B3A" stroke="#A78BFA" stroke-opacity="0.5"/><text x="44" y="21" text-anchor="middle" font-size="15" fill="#EDE9FE" font-weight="500">MPU6050</text></g><g transform="translate(244,290.0)"><rect width="128" height="32" rx="16" fill="#1E1B3A" stroke="#A78BFA" stroke-opacity="0.5"/><text x="64" y="21" text-anchor="middle" font-size="15" fill="#EDE9FE" font-weight="500">Raspberry Pi</text></g><g transform="translate(382,290.0)"><rect width="104" height="32" rx="16" fill="#1E1B3A" stroke="#A78BFA" stroke-opacity="0.5"/><text x="52" y="21" text-anchor="middle" font-size="15" fill="#EDE9FE" font-weight="500">SVM · KNN</text></g><g transform="translate(496,290.0)"><rect width="72" height="32" rx="16" fill="#1E1B3A" stroke="#A78BFA" stroke-opacity="0.5"/><text x="36" y="21" text-anchor="middle" font-size="15" fill="#EDE9FE" font-weight="500">Flask</text></g><g transform="translate(578,290.0)"><rect width="112" height="32" rx="16" fill="#1E1B3A" stroke="#A78BFA" stroke-opacity="0.5"/><text x="56" y="21" text-anchor="middle" font-size="15" fill="#EDE9FE" font-weight="500">ThingSpeak</text></g>
</svg>